<svg width="10" height="10" viewBox="0 0 10 10" fill="none" xmlns="http://www.w3.org/2000/svg">
<path d="M7.61108 4.28149C7.61108 5.93824 4.61108 8.78149 4.61108 8.78149C4.61108 8.78149 1.61108 5.93824 1.61108 4.28149C1.61108 3.48584 1.92715 2.72278 2.48976 2.16017C3.05237 1.59756 3.81543 1.28149 4.61108 1.28149C5.40673 1.28149 6.1698 1.59756 6.7324 2.16017C7.29501 2.72278 7.61108 3.48584 7.61108 4.28149V4.28149Z" fill="#3D1287" fill-opacity="0.6"/>
<path d="M4.61113 4.5814C4.73048 4.5814 4.84494 4.53399 4.92933 4.44959C5.01372 4.3652 5.06113 4.25074 5.06113 4.1314C5.06113 4.01205 5.01372 3.89759 4.92933 3.8132C4.84494 3.72881 4.73048 3.6814 4.61113 3.6814C4.49179 3.6814 4.37733 3.72881 4.29293 3.8132C4.20854 3.89759 4.16113 4.01205 4.16113 4.1314C4.16113 4.25074 4.20854 4.3652 4.29293 4.44959C4.37733 4.53399 4.49179 4.5814 4.61113 4.5814V4.5814Z" fill="white" stroke="white" stroke-width="1.25" stroke-linecap="round" stroke-linejoin="round"/>
</svg>
